<svg width="13" height="13" viewBox="0 0 13 13" fill="none" xmlns="http://www.w3.org/2000/svg">
<path d="M6.5 13C2.91489 13 0 10.0832 0 6.5C0 2.91676 2.91676 0 6.5 0C10.0832 0 13 2.91676 13 6.5C13 10.0832 10.0832 13 6.5 13ZM6.5 1.48833C3.73675 1.48833 1.48833 3.73675 1.48833 6.5C1.48833 9.26325 3.73675 11.5117 6.5 11.5117C9.26325 11.5117 11.5117 9.26325 11.5117 6.5C11.5117 3.73675 9.26325 1.48833 6.5 1.48833Z" fill="black"/>
<path d="M9.2783 7.42107H6.44952C6.03766 7.42107 5.68945 7.05977 5.68945 6.64791V2.62847C5.68945 2.2166 6.02643 1.88337 6.4383 1.88337C6.85017 1.88337 7.18715 2.2166 7.18715 2.62847V5.9215H9.2783C9.69016 5.9215 10.0234 6.25848 10.0234 6.67035C10.0234 7.08221 9.69016 7.42107 9.2783 7.42107Z" fill="black"/>
</svg>
