<svg width="13" height="17" viewBox="0 0 13 17" fill="none" xmlns="http://www.w3.org/2000/svg">
<path d="M6.45337 17C6.21052 17 5.98218 16.8941 5.82443 16.7094C5.2287 16.0099 0 9.77034 0 6.45337C0 2.89562 2.89562 0 6.45337 0C10.0111 0 12.9067 2.89562 12.9067 6.45337C12.9067 9.77034 7.67804 16.0078 7.08232 16.7094C6.92664 16.8941 6.69623 17 6.45337 17ZM6.45337 1.65228C3.80478 1.65228 1.65017 3.80683 1.65017 6.45543C1.65017 8.48131 4.69525 12.6929 6.45337 14.8786C8.20942 12.6929 11.2565 8.48131 11.2565 6.45543C11.2565 3.80683 9.10197 1.65228 6.45337 1.65228Z" fill="black"/>
<path d="M6.45358 9.38839C4.85322 9.38839 3.55176 8.08693 3.55176 6.48449C3.55176 4.88412 4.85322 3.58266 6.45358 3.58266C8.05395 3.58266 9.35749 4.88412 9.35749 6.48449C9.35749 8.08693 8.05603 9.38839 6.45358 9.38839ZM6.45358 5.23491C5.76238 5.23491 5.20193 5.79743 5.20193 6.48656C5.20193 7.17777 5.76445 7.73822 6.45358 7.73822C7.14479 7.73822 7.70524 7.1757 7.70524 6.48656C7.70731 5.79536 7.14479 5.23491 6.45358 5.23491Z" fill="black"/>
</svg>
