<svg width="12" height="13" viewBox="0 0 12 13" fill="none" xmlns="http://www.w3.org/2000/svg">
<path d="M11.3033 12.1843H0.698446C0.312369 12.1843 0 11.8719 0 11.4858C0 8.94647 2.06551 6.88095 4.60485 6.88095H7.39514C9.93447 6.88095 12 8.94647 12 11.4858C12 11.8719 11.6876 12.1843 11.3033 12.1843ZM1.47235 10.7891H10.5294C10.21 9.35361 8.92717 8.27784 7.39689 8.27784H4.60661C3.07458 8.27784 1.79174 9.35361 1.47235 10.7891Z" fill="black"/>
<path d="M5.99999 6.13863C4.30651 6.13863 2.93066 4.76104 2.93066 3.06932C2.93066 1.37584 4.30827 0 5.99999 0C7.69347 0 9.06931 1.37759 9.06931 3.06932C9.07106 4.76104 7.69347 6.13863 5.99999 6.13863ZM5.99999 1.39338C5.07691 1.39338 4.32581 2.14448 4.32581 3.06756C4.32581 3.99064 5.07691 4.74174 5.99999 4.74174C6.92307 4.74174 7.67416 3.99064 7.67416 3.06756C7.67592 2.14448 6.92482 1.39338 5.99999 1.39338Z" fill="black"/>
</svg>
